<svg xmlns="http://www.w3.org/2000/svg" xmlns:xlink="http://www.w3.org/1999/xlink" width="40" zoomAndPan="magnify" viewBox="0 0 30 30.000001" height="40" preserveAspectRatio="xMidYMid meet" version="1.0"><defs><clipPath id="85fdca2d37"><path d="M 0.484375 8.472656 L 29.515625 8.472656 L 29.515625 20.8125 L 0.484375 20.8125 Z M 0.484375 8.472656 " clip-rule="nonzero"/></clipPath></defs><path fill="#c53735" d="M 13.386719 12.066406 L 15 12.066406 L 15 15.417969 L 13.386719 15.417969 Z M 13.386719 12.066406 " fill-opacity="1" fill-rule="nonzero"/><g clip-path="url(#85fdca2d37)"><path fill="#c53735" d="M 29.515625 8.710938 L 0.484375 8.710938 L 0.484375 18.773438 L 8.546875 18.773438 L 8.546875 20.453125 L 15 20.453125 L 15 18.773438 L 29.515625 18.773438 Z M 8.546875 17.097656 L 6.933594 17.097656 L 6.933594 12.066406 L 5.324219 12.066406 L 5.324219 17.097656 L 2.097656 17.097656 L 2.097656 10.386719 L 8.546875 10.386719 Z M 16.613281 17.097656 L 13.386719 17.097656 L 13.386719 18.773438 L 10.160156 18.773438 L 10.160156 10.386719 L 16.613281 10.386719 Z M 27.902344 17.097656 L 26.292969 17.097656 L 26.292969 12.066406 L 24.675781 12.066406 L 24.675781 17.097656 L 23.066406 17.097656 L 23.066406 12.066406 L 21.453125 12.066406 L 21.453125 17.097656 L 18.226562 17.097656 L 18.226562 10.386719 L 27.902344 10.386719 Z M 27.902344 17.097656 " fill-opacity="1" fill-rule="nonzero"/></g></svg>