<svg xmlns="http://www.w3.org/2000/svg" xmlns:xlink="http://www.w3.org/1999/xlink" width="40" zoomAndPan="magnify" viewBox="0 0 30 30.000001" height="40" preserveAspectRatio="xMidYMid meet" version="1.0"><defs><clipPath id="66961bdcc9"><path d="M 0.484375 0 L 29.515625 0 L 29.515625 29.03125 L 0.484375 29.03125 Z M 0.484375 0 " clip-rule="nonzero"/></clipPath></defs><g clip-path="url(#66961bdcc9)"><path fill="#c76495" d="M 15 29.03125 C 23.015625 29.03125 29.515625 22.53125 29.515625 14.515625 C 29.515625 6.5 23.015625 0 15 0 C 6.984375 0 0.484375 6.5 0.484375 14.515625 C 0.484375 22.53125 6.984375 29.03125 15 29.03125 Z M 8.238281 8.175781 C 10.113281 6.421875 12.71875 5.078125 15.125 4.222656 C 19.171875 2.785156 23.449219 3.632812 24.105469 6.214844 L 24.015625 6.132812 C 24.652344 8.671875 22.457031 11.703125 19.644531 12.792969 C 17.140625 13.769531 15.050781 13.609375 14.199219 13.335938 C 13.21875 13.011719 12.65625 12.375 12.511719 12.011719 C 12.457031 11.867188 12.367188 11.632812 12.511719 11.558594 C 12.601562 11.503906 12.640625 11.519531 12.890625 11.792969 C 13.128906 12.046875 14.054688 12.738281 15.832031 12.535156 C 20.496094 12.011719 23.289062 8.398438 22.402344 6.460938 C 21.785156 5.097656 18.210938 4.480469 13.726562 6.714844 C 8.265625 9.433594 7.957031 11.683594 7.921875 12.535156 C 7.792969 14.878906 10.824219 16.113281 12.457031 17.871094 C 12.511719 17.90625 12.546875 17.945312 12.585938 18 C 13.074219 17.800781 13.765625 17.707031 14.851562 17.6875 C 17.5 17.652344 18.988281 19.394531 18.933594 20.957031 C 18.878906 22.191406 17.753906 22.699219 17.554688 22.734375 C 17.410156 22.753906 17.320312 22.753906 17.300781 22.644531 C 17.285156 22.570312 17.339844 22.535156 17.519531 22.425781 C 17.703125 22.316406 18.226562 21.933594 18.335938 21.28125 C 18.445312 20.628906 17.9375 19.03125 15.394531 18.742188 C 14.488281 18.632812 13.78125 18.707031 13.183594 18.867188 C 13.621094 19.832031 13.710938 21.789062 12.691406 23.316406 C 11.640625 24.875 9.679688 25.835938 7.777344 25.308594 C 7.160156 25.148438 6.214844 23.875 7.03125 22.097656 C 7.792969 20.410156 11.046875 18.777344 11.492188 18.558594 L 11.492188 18.554688 C 9.984375 17.253906 6.316406 15.503906 5.800781 12.832031 C 5.65625 12.074219 6.007812 10.257812 8.238281 8.175781 Z M 8.238281 8.175781 " fill-opacity="1" fill-rule="nonzero"/></g><path fill="#c76495" d="M 8.714844 23.90625 C 9.21875 24.195312 10.398438 23.847656 11.242188 22.929688 C 11.519531 22.628906 11.742188 22.300781 11.914062 21.949219 C 11.945312 21.882812 11.976562 21.8125 12.007812 21.738281 L 12.085938 21.519531 C 12.304688 20.863281 12.328125 20.132812 12.113281 19.351562 L 11.984375 19.425781 L 11.984375 19.429688 C 11.984375 19.429688 10.472656 20.144531 9.417969 21.253906 C 8.441406 22.289062 8.167969 23.585938 8.714844 23.90625 Z M 8.714844 23.90625 " fill-opacity="1" fill-rule="nonzero"/></svg>