<svg xmlns="http://www.w3.org/2000/svg" xmlns:v="https://svgstorm.com"
viewBox = "0 0 128 128"
width="128"
height="128">
<g fill="None" fill-opacity="0.0" stroke="#000000" stroke-opacity="0.00" stroke-width="0.3"><path d="
M 0.00 128.00 
L 60.00 128.00
C 46.65 123.15 32.02 119.74 18.00 116.00
C 14.34 77.43 10.40 38.91 8.00 0.00
L 0.00 0.00
L 0.00 128.00 Z"/>
</g>
<g fill="None" fill-opacity="0.0" stroke="#2497F3" stroke-opacity="0.98" stroke-width="0.3"><path d="
M 60.00 128.00 
L 68.00 128.00
C 81.35 123.15 95.98 119.74 110.00 116.00
C 113.63 77.42 117.59 38.91 120.00 0.00
L 8.00 0.00
C 10.40 38.91 14.34 77.43 18.00 116.00
C 32.02 119.74 46.65 123.15 60.00 128.00
M 99.00 24.00 
C 97.19 48.04 95.09 72.02 93.00 96.00
C 83.03 95.97 73.88 102.99 63.99 102.99 C 54.11 102.99 45.02 95.98 35.00 96.00
C 34.58 88.28 33.43 80.74 33.00 73.00
C 37.67 73.00 42.33 73.00 47.00 73.00
C 46.68 77.15 48.73 80.72 48.00 85.00
C 58.70 89.13 69.27 89.14 80.00 85.00
C 79.97 78.17 82.03 71.86 82.00 65.00
C 65.33 65.00 48.67 65.00 32.00 65.00
C 32.72 60.40 30.47 56.57 31.00 52.00
C 38.91 52.82 44.90 50.91 53.00 52.00 C 61.10 53.09 66.42 49.49 75.00 51.00 C 83.58 52.51 85.82 45.31 84.00 37.00
C 65.67 37.00 47.33 37.00 29.00 37.00
C 29.00 32.67 29.00 28.33 29.00 24.00
C 52.33 24.00 75.67 24.00 99.00 24.00 Z"/>
</g>
<g fill="None" fill-opacity="0.0" stroke="#000000" stroke-opacity="0.00" stroke-width="0.3"><path d="
M 68.00 128.00 
L 128.00 128.00
L 128.00 0.00
L 120.00 0.00
C 117.59 38.91 113.63 77.42 110.00 116.00
C 95.98 119.74 81.35 123.15 68.00 128.00 Z"/>
</g>
<g fill="None" fill-opacity="0.0" stroke="#F7F9F9" stroke-opacity="1.00" stroke-width="0.3"><path d="
M 99.00 24.00 
C 75.67 24.00 52.33 24.00 29.00 24.00
C 29.00 28.33 29.00 32.67 29.00 37.00
C 47.33 37.00 65.67 37.00 84.00 37.00
C 85.82 45.31 83.58 52.51 75.00 51.00 C 66.42 49.49 61.10 53.09 53.00 52.00 C 44.90 50.91 38.91 52.82 31.00 52.00
C 30.47 56.57 32.72 60.40 32.00 65.00
C 48.67 65.00 65.33 65.00 82.00 65.00
C 82.03 71.86 79.97 78.17 80.00 85.00
C 69.27 89.14 58.70 89.13 48.00 85.00
C 48.73 80.72 46.68 77.15 47.00 73.00
C 42.33 73.00 37.67 73.00 33.00 73.00
C 33.43 80.74 34.58 88.28 35.00 96.00
C 45.02 95.98 54.11 102.99 63.99 102.99 C 73.88 102.99 83.03 95.97 93.00 96.00
C 95.09 72.02 97.19 48.04 99.00 24.00 Z"/>
</g>
<g fill="#000000" fill-opacity="0.00" stroke="None">
<path d="
M 0.00 128.00 
L 60.00 128.00
C 46.65 123.15 32.02 119.74 18.00 116.00
C 14.34 77.43 10.40 38.91 8.00 0.00
L 0.00 0.00
L 0.00 128.00 Z"/>
</g>
<g fill="#2497F3" fill-opacity="0.98" stroke="None">
<path d="
M 60.00 128.00 
L 68.00 128.00
C 81.35 123.15 95.98 119.74 110.00 116.00
C 113.63 77.42 117.59 38.91 120.00 0.00
L 8.00 0.00
C 10.40 38.91 14.34 77.43 18.00 116.00
C 32.02 119.74 46.65 123.15 60.00 128.00
M 99.00 24.00 
C 97.19 48.04 95.09 72.02 93.00 96.00
C 83.03 95.97 73.88 102.99 63.99 102.99 C 54.11 102.99 45.02 95.98 35.00 96.00
C 34.58 88.28 33.43 80.74 33.00 73.00
C 37.67 73.00 42.33 73.00 47.00 73.00
C 46.68 77.15 48.73 80.72 48.00 85.00
C 58.70 89.13 69.27 89.14 80.00 85.00
C 79.97 78.17 82.03 71.86 82.00 65.00
C 65.33 65.00 48.67 65.00 32.00 65.00
C 32.72 60.40 30.47 56.57 31.00 52.00
C 38.91 52.82 44.90 50.91 53.00 52.00 C 61.10 53.09 66.42 49.49 75.00 51.00 C 83.58 52.51 85.82 45.31 84.00 37.00
C 65.67 37.00 47.33 37.00 29.00 37.00
C 29.00 32.67 29.00 28.33 29.00 24.00
C 52.33 24.00 75.67 24.00 99.00 24.00 Z"/>
</g>
<g fill="#000000" fill-opacity="0.00" stroke="None">
<path d="
M 68.00 128.00 
L 128.00 128.00
L 128.00 0.00
L 120.00 0.00
C 117.59 38.91 113.63 77.42 110.00 116.00
C 95.98 119.74 81.35 123.15 68.00 128.00 Z"/>
</g>
<g fill="#F7F9F9" fill-opacity="1.00" stroke="None">
<path d="
M 99.00 24.00 
C 75.67 24.00 52.33 24.00 29.00 24.00
C 29.00 28.33 29.00 32.67 29.00 37.00
C 47.33 37.00 65.67 37.00 84.00 37.00
C 85.82 45.31 83.58 52.51 75.00 51.00 C 66.42 49.49 61.10 53.09 53.00 52.00 C 44.90 50.91 38.91 52.82 31.00 52.00
C 30.47 56.57 32.72 60.40 32.00 65.00
C 48.67 65.00 65.33 65.00 82.00 65.00
C 82.03 71.86 79.97 78.17 80.00 85.00
C 69.27 89.14 58.70 89.13 48.00 85.00
C 48.73 80.72 46.68 77.15 47.00 73.00
C 42.33 73.00 37.67 73.00 33.00 73.00
C 33.43 80.74 34.58 88.28 35.00 96.00
C 45.02 95.98 54.11 102.99 63.99 102.99 C 73.88 102.99 83.03 95.97 93.00 96.00
C 95.09 72.02 97.19 48.04 99.00 24.00 Z"/>
</g>
</svg>