<svg xmlns="http://www.w3.org/2000/svg" xmlns:xlink="http://www.w3.org/1999/xlink" width="40" zoomAndPan="magnify" viewBox="0 0 30 30.000001" height="40" preserveAspectRatio="xMidYMid meet" version="1.0"><defs><clipPath id="4ccaf17ed3"><path d="M 1.066406 0 L 28.644531 0 L 28.644531 29 L 1.066406 29 Z M 1.066406 0 " clip-rule="nonzero"/></clipPath></defs><g clip-path="url(#4ccaf17ed3)"><path fill="#010409" d="M 14.996094 0.585938 C 7.300781 0.585938 1.066406 6.820312 1.066406 14.515625 C 1.066406 22.210938 7.300781 28.449219 14.996094 28.449219 C 22.691406 28.449219 28.929688 22.210938 28.929688 14.515625 C 28.929688 6.820312 22.691406 0.585938 14.996094 0.585938 Z M 3.386719 14.515625 C 3.386719 8.105469 8.585938 2.90625 14.996094 2.90625 C 21.410156 2.90625 26.605469 8.105469 26.605469 14.515625 C 26.605469 19.742188 23.15625 24.160156 18.40625 25.617188 C 18.539062 23.269531 18.492188 21.816406 18.273438 21.257812 C 18.042969 20.664062 17.855469 20.421875 17.742188 20.277344 C 17.667969 20.183594 17.628906 20.128906 17.628906 20.046875 C 17.628906 19.90625 17.726562 19.804688 17.921875 19.742188 C 19.632812 19.363281 20.777344 18.3125 21.363281 16.589844 C 22.171875 14.199219 21.015625 12.460938 20.550781 11.757812 C 20.511719 11.699219 20.476562 11.648438 20.449219 11.605469 C 20.085938 11.03125 20.5625 9.636719 21.128906 8.519531 C 19.199219 8.132812 18.460938 9.03125 18.039062 9.546875 C 17.863281 9.757812 17.746094 9.902344 17.617188 9.871094 C 17.503906 9.84375 17.378906 9.789062 17.234375 9.726562 C 16.8125 9.539062 16.1875 9.265625 14.996094 9.265625 C 13.519531 9.265625 12.539062 9.78125 12.390625 9.863281 C 12.375 9.867188 12.367188 9.871094 12.367188 9.871094 C 11.589844 8.789062 10.488281 8.339844 9.058594 8.519531 C 9.453125 10.09375 9.480469 11.125 9.148438 11.605469 C 8.644531 12.328125 7.703125 14.011719 8.433594 16.589844 C 9.164062 19.164062 11.824219 19.742188 12.332031 19.742188 C 12.375 19.75 12.746094 19.832031 12.636719 20.148438 C 12.613281 20.230469 12.597656 20.34375 12.582031 20.472656 C 12.527344 20.886719 12.457031 21.445312 12.0625 21.628906 C 11.542969 21.867188 10.398438 21.996094 9.921875 21.699219 C 9.761719 21.601562 9.648438 21.390625 9.507812 21.140625 C 9.234375 20.640625 8.863281 19.96875 7.851562 19.65625 C 6.335938 19.1875 6.429688 19.808594 6.808594 19.960938 C 6.890625 19.992188 7 20.023438 7.128906 20.058594 C 7.574219 20.1875 8.21875 20.367188 8.546875 20.898438 C 8.644531 21.054688 8.742188 21.222656 8.84375 21.398438 C 9.1875 21.984375 9.554688 22.613281 9.921875 22.855469 C 10.238281 23.0625 10.996094 23.148438 12.199219 23.105469 C 12.148438 24.242188 12.121094 25.128906 12.117188 25.765625 C 7.097656 24.484375 3.386719 19.933594 3.386719 14.515625 Z M 3.386719 14.515625 " fill-opacity="0.85" fill-rule="evenodd"/></g></svg>