<svg xmlns="http://www.w3.org/2000/svg" xmlns:xlink="http://www.w3.org/1999/xlink" width="40" zoomAndPan="magnify" viewBox="0 0 30 30.000001" height="40" preserveAspectRatio="xMidYMid meet" version="1.0"><defs><clipPath id="341bb6d91f"><path d="M 0.484375 0 L 29.515625 0 L 29.515625 29.03125 L 0.484375 29.03125 Z M 0.484375 0 " clip-rule="nonzero"/></clipPath></defs><g clip-path="url(#341bb6d91f)"><path fill="#f0dc4e" d="M 1.804688 0 C 1.074219 0 0.484375 0.589844 0.484375 1.320312 L 0.484375 27.710938 C 0.484375 28.441406 1.074219 29.03125 1.804688 29.03125 L 28.195312 29.03125 C 28.925781 29.03125 29.515625 28.441406 29.515625 27.710938 L 29.515625 1.320312 C 29.515625 0.589844 28.925781 0 28.195312 0 Z M 20.9375 15.835938 C 20.574219 15.835938 20.277344 16.132812 20.277344 16.496094 L 20.277344 17.15625 C 20.277344 17.519531 20.574219 17.816406 20.9375 17.816406 L 22.917969 17.816406 C 24.738281 17.816406 26.21875 19.292969 26.21875 21.113281 L 26.21875 21.773438 C 26.21875 23.597656 24.738281 25.074219 22.917969 25.074219 L 18.957031 25.074219 L 18.957031 22.433594 L 22.917969 22.433594 C 23.28125 22.433594 23.578125 22.136719 23.578125 21.773438 L 23.578125 21.113281 C 23.578125 20.75 23.28125 20.453125 22.917969 20.453125 L 20.9375 20.453125 C 19.117188 20.453125 17.640625 18.976562 17.640625 17.15625 L 17.640625 16.496094 C 17.640625 14.671875 19.117188 13.195312 20.9375 13.195312 L 24.898438 13.195312 L 24.898438 15.835938 Z M 14.339844 14.515625 L 14.339844 21.773438 C 14.339844 22.136719 14.042969 22.433594 13.679688 22.433594 L 11.699219 22.433594 C 11.335938 22.433594 11.042969 22.136719 11.042969 21.773438 L 11.042969 21.113281 L 8.402344 21.113281 L 8.402344 21.773438 C 8.402344 23.597656 9.878906 25.074219 11.699219 25.074219 L 13.679688 25.074219 C 15.503906 25.074219 16.980469 23.597656 16.980469 21.773438 L 16.980469 14.515625 Z M 14.339844 14.515625 " fill-opacity="1" fill-rule="evenodd"/></g></svg>