<svg xmlns="http://www.w3.org/2000/svg" xmlns:xlink="http://www.w3.org/1999/xlink" width="40" zoomAndPan="magnify" viewBox="0 0 30 30.000001" height="40" preserveAspectRatio="xMidYMid meet" version="1.0"><defs><clipPath id="ae19e083ee"><path d="M 0.484375 6.96875 L 29.515625 6.96875 L 29.515625 22.210938 L 0.484375 22.210938 Z M 0.484375 6.96875 " clip-rule="nonzero"/></clipPath><clipPath id="4e5ad5b09e"><path d="M 0.484375 14.589844 C 0.484375 18.792969 6.984375 22.195312 15 22.195312 C 23.015625 22.195312 29.515625 18.792969 29.515625 14.589844 C 29.515625 10.390625 23.015625 6.984375 15 6.984375 C 6.984375 6.984375 0.484375 10.390625 0.484375 14.589844 " clip-rule="nonzero"/></clipPath><clipPath id="823fad266e"><path d="M 0.484375 14.589844 C 0.484375 18.792969 6.984375 22.195312 15 22.195312 C 23.015625 22.195312 29.515625 18.792969 29.515625 14.589844 C 29.515625 10.390625 23.015625 6.984375 15 6.984375 C 6.984375 6.984375 0.484375 10.390625 0.484375 14.589844 " clip-rule="nonzero"/></clipPath><radialGradient gradientTransform="matrix(1.002016, 0, 0, 0.997984, 9.199185, 9.65955)" gradientUnits="userSpaceOnUse" r="19.022995" cx="0" id="61b0bf45e1" cy="0" fx="0" fy="0"><stop stop-opacity="1" stop-color="rgb(68.199158%, 69.799805%, 83.499146%)" offset="0"/><stop stop-opacity="1" stop-color="rgb(68.199158%, 69.799805%, 83.499146%)" offset="0.25"/><stop stop-opacity="1" stop-color="rgb(68.164062%, 69.764709%, 83.473206%)" offset="0.296875"/><stop stop-opacity="1" stop-color="rgb(67.956543%, 69.555664%, 83.317566%)" offset="0.300781"/><stop stop-opacity="1" stop-color="rgb(67.608643%, 69.20929%, 83.059692%)" offset="0.304688"/><stop stop-opacity="1" stop-color="rgb(67.260742%, 68.861389%, 82.800293%)" offset="0.308594"/><stop stop-opacity="1" stop-color="rgb(66.914368%, 68.513489%, 82.542419%)" offset="0.3125"/><stop stop-opacity="1" stop-color="rgb(66.566467%, 68.167114%, 82.28302%)" offset="0.316406"/><stop stop-opacity="1" stop-color="rgb(66.220093%, 67.819214%, 82.025146%)" offset="0.320312"/><stop stop-opacity="1" stop-color="rgb(65.872192%, 67.472839%, 81.765747%)" offset="0.324219"/><stop stop-opacity="1" stop-color="rgb(65.525818%, 67.124939%, 81.506348%)" offset="0.328125"/><stop stop-opacity="1" stop-color="rgb(65.177917%, 66.778564%, 81.248474%)" offset="0.332031"/><stop stop-opacity="1" stop-color="rgb(64.831543%, 66.430664%, 80.989075%)" offset="0.335938"/><stop stop-opacity="1" stop-color="rgb(64.483643%, 66.08429%, 80.731201%)" offset="0.339844"/><stop stop-opacity="1" stop-color="rgb(64.135742%, 65.736389%, 80.471802%)" offset="0.34375"/><stop stop-opacity="1" stop-color="rgb(63.789368%, 65.388489%, 80.213928%)" offset="0.347656"/><stop stop-opacity="1" stop-color="rgb(63.441467%, 65.042114%, 79.954529%)" offset="0.351562"/><stop stop-opacity="1" stop-color="rgb(63.095093%, 64.694214%, 79.696655%)" offset="0.355469"/><stop stop-opacity="1" stop-color="rgb(62.747192%, 64.347839%, 79.437256%)" offset="0.359375"/><stop stop-opacity="1" stop-color="rgb(62.400818%, 63.999939%, 79.179382%)" offset="0.363281"/><stop stop-opacity="1" stop-color="rgb(62.052917%, 63.653564%, 78.919983%)" offset="0.367188"/><stop stop-opacity="1" stop-color="rgb(61.706543%, 63.305664%, 78.662109%)" offset="0.371094"/><stop stop-opacity="1" stop-color="rgb(61.358643%, 62.95929%, 78.40271%)" offset="0.375"/><stop stop-opacity="1" stop-color="rgb(61.010742%, 62.611389%, 78.144836%)" offset="0.378906"/><stop stop-opacity="1" stop-color="rgb(60.664368%, 62.263489%, 77.885437%)" offset="0.382812"/><stop stop-opacity="1" stop-color="rgb(60.316467%, 61.917114%, 77.627563%)" offset="0.386719"/><stop stop-opacity="1" stop-color="rgb(59.970093%, 61.569214%, 77.368164%)" offset="0.390625"/><stop stop-opacity="1" stop-color="rgb(59.622192%, 61.222839%, 77.108765%)" offset="0.394531"/><stop stop-opacity="1" stop-color="rgb(59.275818%, 60.874939%, 76.850891%)" offset="0.398438"/><stop stop-opacity="1" stop-color="rgb(58.927917%, 60.528564%, 76.591492%)" offset="0.402344"/><stop stop-opacity="1" stop-color="rgb(58.581543%, 60.180664%, 76.333618%)" offset="0.40625"/><stop stop-opacity="1" stop-color="rgb(58.233643%, 59.83429%, 76.074219%)" offset="0.410156"/><stop stop-opacity="1" stop-color="rgb(57.885742%, 59.486389%, 75.816345%)" offset="0.414062"/><stop stop-opacity="1" stop-color="rgb(57.539368%, 59.138489%, 75.556946%)" offset="0.417969"/><stop stop-opacity="1" stop-color="rgb(57.191467%, 58.792114%, 75.299072%)" offset="0.421875"/><stop stop-opacity="1" stop-color="rgb(56.845093%, 58.444214%, 75.039673%)" offset="0.425781"/><stop stop-opacity="1" stop-color="rgb(56.497192%, 58.097839%, 74.781799%)" offset="0.429688"/><stop stop-opacity="1" stop-color="rgb(56.150818%, 57.749939%, 74.5224%)" offset="0.433594"/><stop stop-opacity="1" stop-color="rgb(55.802917%, 57.403564%, 74.264526%)" offset="0.4375"/><stop stop-opacity="1" stop-color="rgb(55.456543%, 57.055664%, 74.005127%)" offset="0.441406"/><stop stop-opacity="1" stop-color="rgb(55.108643%, 56.70929%, 73.747253%)" offset="0.445312"/><stop stop-opacity="1" stop-color="rgb(54.760742%, 56.361389%, 73.487854%)" offset="0.449219"/><stop stop-opacity="1" stop-color="rgb(54.414368%, 56.013489%, 73.22998%)" offset="0.453125"/><stop stop-opacity="1" stop-color="rgb(54.066467%, 55.667114%, 72.970581%)" offset="0.457031"/><stop stop-opacity="1" stop-color="rgb(53.720093%, 55.319214%, 72.711182%)" offset="0.460938"/><stop stop-opacity="1" stop-color="rgb(53.372192%, 54.972839%, 72.453308%)" offset="0.464844"/><stop stop-opacity="1" stop-color="rgb(53.025818%, 54.624939%, 72.193909%)" offset="0.46875"/><stop stop-opacity="1" stop-color="rgb(52.677917%, 54.278564%, 71.936035%)" offset="0.472656"/><stop stop-opacity="1" stop-color="rgb(52.331543%, 53.930664%, 71.676636%)" offset="0.476562"/><stop stop-opacity="1" stop-color="rgb(51.983643%, 53.58429%, 71.418762%)" offset="0.480469"/><stop stop-opacity="1" stop-color="rgb(51.635742%, 53.236389%, 71.159363%)" offset="0.484375"/><stop stop-opacity="1" stop-color="rgb(51.289368%, 52.888489%, 70.901489%)" offset="0.488281"/><stop stop-opacity="1" stop-color="rgb(50.941467%, 52.542114%, 70.64209%)" offset="0.492188"/><stop stop-opacity="1" stop-color="rgb(50.595093%, 52.194214%, 70.384216%)" offset="0.496094"/><stop stop-opacity="1" stop-color="rgb(50.247192%, 51.847839%, 70.124817%)" offset="0.5"/><stop stop-opacity="1" stop-color="rgb(49.900818%, 51.499939%, 69.866943%)" offset="0.503906"/><stop stop-opacity="1" stop-color="rgb(49.552917%, 51.153564%, 69.607544%)" offset="0.507812"/><stop stop-opacity="1" stop-color="rgb(49.206543%, 50.805664%, 69.34967%)" offset="0.511719"/><stop stop-opacity="1" stop-color="rgb(48.858643%, 50.45929%, 69.090271%)" offset="0.515625"/><stop stop-opacity="1" stop-color="rgb(48.510742%, 50.111389%, 68.832397%)" offset="0.519531"/><stop stop-opacity="1" stop-color="rgb(48.164368%, 49.763489%, 68.572998%)" offset="0.523438"/><stop stop-opacity="1" stop-color="rgb(47.816467%, 49.417114%, 68.313599%)" offset="0.527344"/><stop stop-opacity="1" stop-color="rgb(47.470093%, 49.069214%, 68.055725%)" offset="0.53125"/><stop stop-opacity="1" stop-color="rgb(47.122192%, 48.722839%, 67.796326%)" offset="0.535156"/><stop stop-opacity="1" stop-color="rgb(46.775818%, 48.374939%, 67.538452%)" offset="0.539062"/><stop stop-opacity="1" stop-color="rgb(46.427917%, 48.028564%, 67.279053%)" offset="0.542969"/><stop stop-opacity="1" stop-color="rgb(46.081543%, 47.680664%, 67.021179%)" offset="0.546875"/><stop stop-opacity="1" stop-color="rgb(45.733643%, 47.33429%, 66.76178%)" offset="0.550781"/><stop stop-opacity="1" stop-color="rgb(45.385742%, 46.986389%, 66.503906%)" offset="0.554688"/><stop stop-opacity="1" stop-color="rgb(45.039368%, 46.638489%, 66.244507%)" offset="0.558594"/><stop stop-opacity="1" stop-color="rgb(44.691467%, 46.292114%, 65.986633%)" offset="0.5625"/><stop stop-opacity="1" stop-color="rgb(44.345093%, 45.944214%, 65.727234%)" offset="0.566406"/><stop stop-opacity="1" stop-color="rgb(43.997192%, 45.597839%, 65.46936%)" offset="0.570312"/><stop stop-opacity="1" stop-color="rgb(43.650818%, 45.249939%, 65.209961%)" offset="0.574219"/><stop stop-opacity="1" stop-color="rgb(43.302917%, 44.903564%, 64.952087%)" offset="0.578125"/><stop stop-opacity="1" stop-color="rgb(42.956543%, 44.555664%, 64.692688%)" offset="0.582031"/><stop stop-opacity="1" stop-color="rgb(42.608643%, 44.20929%, 64.434814%)" offset="0.585938"/><stop stop-opacity="1" stop-color="rgb(42.260742%, 43.861389%, 64.175415%)" offset="0.589844"/><stop stop-opacity="1" stop-color="rgb(41.914368%, 43.513489%, 63.916016%)" offset="0.59375"/><stop stop-opacity="1" stop-color="rgb(41.566467%, 43.167114%, 63.658142%)" offset="0.597656"/><stop stop-opacity="1" stop-color="rgb(41.220093%, 42.819214%, 63.398743%)" offset="0.601562"/><stop stop-opacity="1" stop-color="rgb(40.872192%, 42.472839%, 63.140869%)" offset="0.605469"/><stop stop-opacity="1" stop-color="rgb(40.525818%, 42.124939%, 62.88147%)" offset="0.609375"/><stop stop-opacity="1" stop-color="rgb(40.177917%, 41.778564%, 62.623596%)" offset="0.613281"/><stop stop-opacity="1" stop-color="rgb(39.831543%, 41.430664%, 62.364197%)" offset="0.617188"/><stop stop-opacity="1" stop-color="rgb(39.483643%, 41.08429%, 62.106323%)" offset="0.621094"/><stop stop-opacity="1" stop-color="rgb(39.135742%, 40.736389%, 61.846924%)" offset="0.625"/><stop stop-opacity="1" stop-color="rgb(38.789368%, 40.388489%, 61.58905%)" offset="0.628906"/><stop stop-opacity="1" stop-color="rgb(38.441467%, 40.042114%, 61.329651%)" offset="0.632812"/><stop stop-opacity="1" stop-color="rgb(38.095093%, 39.694214%, 61.071777%)" offset="0.636719"/><stop stop-opacity="1" stop-color="rgb(37.747192%, 39.347839%, 60.812378%)" offset="0.640625"/><stop stop-opacity="1" stop-color="rgb(37.400818%, 38.999939%, 60.554504%)" offset="0.644531"/><stop stop-opacity="1" stop-color="rgb(37.052917%, 38.653564%, 60.295105%)" offset="0.648438"/><stop stop-opacity="1" stop-color="rgb(36.706543%, 38.305664%, 60.037231%)" offset="0.652344"/><stop stop-opacity="1" stop-color="rgb(36.358643%, 37.95929%, 59.777832%)" offset="0.65625"/><stop stop-opacity="1" stop-color="rgb(36.010742%, 37.611389%, 59.518433%)" offset="0.660156"/><stop stop-opacity="1" stop-color="rgb(35.664368%, 37.263489%, 59.260559%)" offset="0.664062"/><stop stop-opacity="1" stop-color="rgb(35.316467%, 36.917114%, 59.00116%)" offset="0.667969"/><stop stop-opacity="1" stop-color="rgb(34.970093%, 36.569214%, 58.743286%)" offset="0.671875"/><stop stop-opacity="1" stop-color="rgb(34.622192%, 36.222839%, 58.483887%)" offset="0.675781"/><stop stop-opacity="1" stop-color="rgb(34.275818%, 35.874939%, 58.226013%)" offset="0.679688"/><stop stop-opacity="1" stop-color="rgb(33.927917%, 35.528564%, 57.966614%)" offset="0.683594"/><stop stop-opacity="1" stop-color="rgb(33.581543%, 35.180664%, 57.70874%)" offset="0.6875"/><stop stop-opacity="1" stop-color="rgb(33.233643%, 34.83429%, 57.449341%)" offset="0.691406"/><stop stop-opacity="1" stop-color="rgb(32.885742%, 34.486389%, 57.191467%)" offset="0.695312"/><stop stop-opacity="1" stop-color="rgb(32.539368%, 34.138489%, 56.932068%)" offset="0.699219"/><stop stop-opacity="1" stop-color="rgb(32.191467%, 33.792114%, 56.674194%)" offset="0.703125"/><stop stop-opacity="1" stop-color="rgb(31.845093%, 33.444214%, 56.414795%)" offset="0.707031"/><stop stop-opacity="1" stop-color="rgb(31.497192%, 33.097839%, 56.156921%)" offset="0.710938"/><stop stop-opacity="1" stop-color="rgb(31.150818%, 32.749939%, 55.897522%)" offset="0.714844"/><stop stop-opacity="1" stop-color="rgb(30.802917%, 32.403564%, 55.639648%)" offset="0.71875"/><stop stop-opacity="1" stop-color="rgb(30.456543%, 32.055664%, 55.380249%)" offset="0.722656"/><stop stop-opacity="1" stop-color="rgb(30.108643%, 31.70929%, 55.122375%)" offset="0.726562"/><stop stop-opacity="1" stop-color="rgb(29.760742%, 31.361389%, 54.862976%)" offset="0.730469"/><stop stop-opacity="1" stop-color="rgb(29.414368%, 31.013489%, 54.603577%)" offset="0.734375"/><stop stop-opacity="1" stop-color="rgb(29.066467%, 30.667114%, 54.345703%)" offset="0.738281"/><stop stop-opacity="1" stop-color="rgb(28.720093%, 30.319214%, 54.086304%)" offset="0.742188"/><stop stop-opacity="1" stop-color="rgb(28.372192%, 29.972839%, 53.82843%)" offset="0.746094"/><stop stop-opacity="1" stop-color="rgb(28.199768%, 29.798889%, 53.69873%)" offset="1"/></radialGradient></defs><g clip-path="url(#ae19e083ee)"><g clip-path="url(#4e5ad5b09e)"><g clip-path="url(#823fad266e)"><path fill="url(#61b0bf45e1)" d="M 0.484375 6.984375 L 0.484375 22.195312 L 29.515625 22.195312 L 29.515625 6.984375 Z M 0.484375 6.984375 " fill-rule="nonzero"/></g></g></g><path fill="#777bb3" d="M 15 21.632812 C 22.703125 21.632812 28.949219 18.480469 28.949219 14.589844 C 28.949219 10.703125 22.703125 7.550781 15 7.550781 C 7.296875 7.550781 1.050781 10.703125 1.050781 14.589844 C 1.050781 18.480469 7.296875 21.632812 15 21.632812 " fill-opacity="1" fill-rule="nonzero"/><path fill="#000000" d="M 8.371094 15.464844 C 9.003906 15.464844 9.476562 15.347656 9.777344 15.117188 C 10.070312 14.890625 10.277344 14.496094 10.382812 13.949219 C 10.484375 13.4375 10.445312 13.078125 10.269531 12.886719 C 10.089844 12.6875 9.703125 12.585938 9.121094 12.585938 L 8.109375 12.585938 L 7.546875 15.464844 Z M 5.058594 19.007812 C 5.011719 19.007812 4.96875 18.984375 4.9375 18.949219 C 4.90625 18.910156 4.894531 18.867188 4.90625 18.820312 L 6.390625 11.199219 C 6.410156 11.113281 6.460938 11.070312 6.546875 11.070312 L 9.753906 11.070312 C 10.757812 11.070312 11.507812 11.34375 11.980469 11.882812 C 12.453125 12.421875 12.601562 13.175781 12.414062 14.125 C 12.339844 14.511719 12.210938 14.871094 12.03125 15.191406 C 11.851562 15.515625 11.609375 15.8125 11.320312 16.078125 C 10.972656 16.402344 10.582031 16.636719 10.152344 16.773438 C 9.734375 16.910156 9.195312 16.980469 8.550781 16.980469 L 7.25 16.980469 L 6.882812 18.878906 C 6.863281 18.964844 6.8125 19.007812 6.726562 19.007812 Z M 5.058594 19.007812 " fill-opacity="1" fill-rule="nonzero"/><path fill="#ffffff" d="M 8.238281 12.746094 L 9.121094 12.746094 C 9.824219 12.746094 10.070312 12.898438 10.152344 12.992188 C 10.292969 13.144531 10.316406 13.464844 10.230469 13.917969 C 10.128906 14.429688 9.945312 14.789062 9.679688 14.992188 C 9.410156 15.203125 8.96875 15.308594 8.371094 15.308594 L 7.738281 15.308594 Z M 9.753906 10.914062 L 6.546875 10.914062 C 6.375 10.914062 6.269531 11 6.238281 11.167969 L 4.75 18.789062 C 4.730469 18.886719 4.753906 18.972656 4.816406 19.050781 C 4.878906 19.125 4.960938 19.164062 5.058594 19.164062 L 6.726562 19.164062 C 6.898438 19.164062 7.003906 19.078125 7.035156 18.910156 L 7.382812 17.136719 L 8.550781 17.136719 C 9.210938 17.136719 9.765625 17.066406 10.203125 16.925781 C 10.652344 16.777344 11.0625 16.535156 11.429688 16.191406 C 11.730469 15.917969 11.980469 15.605469 12.167969 15.269531 C 12.355469 14.933594 12.492188 14.558594 12.570312 14.15625 C 12.765625 13.15625 12.605469 12.355469 12.097656 11.777344 C 11.597656 11.207031 10.808594 10.914062 9.753906 10.914062 M 7.355469 15.621094 L 8.371094 15.621094 C 9.042969 15.621094 9.542969 15.496094 9.871094 15.242188 C 10.199219 14.992188 10.421875 14.570312 10.539062 13.980469 C 10.648438 13.414062 10.597656 13.011719 10.386719 12.78125 C 10.175781 12.546875 9.753906 12.429688 9.121094 12.429688 L 7.980469 12.429688 L 7.355469 15.621094 M 9.753906 11.230469 C 10.714844 11.230469 11.421875 11.480469 11.863281 11.984375 C 12.304688 12.488281 12.4375 13.191406 12.261719 14.097656 C 12.1875 14.46875 12.066406 14.808594 11.894531 15.117188 C 11.71875 15.425781 11.492188 15.707031 11.214844 15.964844 C 10.882812 16.273438 10.511719 16.496094 10.105469 16.625 C 9.699219 16.757812 9.179688 16.824219 8.550781 16.824219 L 7.121094 16.824219 L 6.726562 18.851562 L 5.058594 18.851562 L 6.546875 11.230469 L 9.753906 11.230469 " fill-opacity="1" fill-rule="nonzero"/><path fill="#000000" d="M 16.238281 16.980469 C 16.191406 16.980469 16.144531 16.960938 16.117188 16.921875 C 16.085938 16.886719 16.074219 16.839844 16.082031 16.792969 L 16.742188 13.421875 C 16.804688 13.101562 16.789062 12.871094 16.699219 12.773438 C 16.640625 12.714844 16.476562 12.613281 15.984375 12.613281 L 14.792969 12.613281 L 13.964844 16.851562 C 13.949219 16.9375 13.894531 16.980469 13.808594 16.980469 L 12.15625 16.980469 C 12.105469 16.980469 12.066406 16.960938 12.035156 16.921875 C 12.003906 16.886719 11.992188 16.84375 12 16.792969 L 13.488281 9.171875 C 13.503906 9.085938 13.554688 9.046875 13.644531 9.046875 L 15.296875 9.046875 C 15.347656 9.046875 15.386719 9.0625 15.417969 9.101562 C 15.449219 9.140625 15.460938 9.183594 15.453125 9.230469 L 15.09375 11.070312 L 16.375 11.070312 C 17.351562 11.070312 18.015625 11.242188 18.398438 11.597656 C 18.792969 11.957031 18.914062 12.53125 18.765625 13.308594 L 18.074219 16.851562 C 18.054688 16.9375 18.003906 16.980469 17.917969 16.980469 Z M 16.238281 16.980469 " fill-opacity="1" fill-rule="nonzero"/><path fill="#ffffff" d="M 15.296875 8.886719 L 13.644531 8.886719 C 13.46875 8.886719 13.367188 8.972656 13.332031 9.140625 L 11.847656 16.761719 C 11.828125 16.859375 11.851562 16.945312 11.914062 17.023438 C 11.976562 17.097656 12.054688 17.136719 12.15625 17.136719 L 13.808594 17.136719 C 13.984375 17.136719 14.085938 17.050781 14.117188 16.882812 L 14.921875 12.769531 L 15.984375 12.769531 C 16.476562 12.769531 16.578125 12.875 16.582031 12.878906 C 16.613281 12.910156 16.652344 13.058594 16.585938 13.390625 L 15.929688 16.761719 C 15.910156 16.859375 15.933594 16.945312 15.996094 17.023438 C 16.058594 17.097656 16.140625 17.136719 16.238281 17.136719 L 17.917969 17.136719 C 18.089844 17.136719 18.195312 17.050781 18.226562 16.882812 L 18.917969 13.335938 C 19.082031 12.503906 18.941406 11.878906 18.507812 11.480469 C 18.089844 11.097656 17.394531 10.914062 16.375 10.914062 L 15.285156 10.914062 L 15.605469 9.261719 C 15.625 9.164062 15.601562 9.078125 15.539062 9.003906 C 15.476562 8.925781 15.394531 8.886719 15.296875 8.886719 M 15.296875 9.203125 L 14.902344 11.226562 L 16.375 11.226562 C 17.300781 11.226562 17.941406 11.390625 18.292969 11.710938 C 18.644531 12.03125 18.75 12.554688 18.609375 13.277344 L 17.917969 16.824219 L 16.238281 16.824219 L 16.894531 13.453125 C 16.96875 13.066406 16.941406 12.804688 16.8125 12.667969 C 16.683594 12.527344 16.40625 12.457031 15.984375 12.457031 L 14.660156 12.457031 L 13.808594 16.824219 L 12.15625 16.824219 L 13.644531 9.203125 L 15.296875 9.203125 " fill-opacity="1" fill-rule="nonzero"/><path fill="#000000" d="M 21.382812 15.464844 C 22.015625 15.464844 22.488281 15.347656 22.785156 15.117188 C 23.082031 14.890625 23.289062 14.496094 23.394531 13.949219 C 23.496094 13.4375 23.457031 13.078125 23.28125 12.886719 C 23.101562 12.6875 22.714844 12.585938 22.132812 12.585938 L 21.121094 12.585938 L 20.558594 15.464844 Z M 18.070312 19.007812 C 18.023438 19.007812 17.980469 18.984375 17.949219 18.949219 C 17.917969 18.910156 17.90625 18.867188 17.914062 18.820312 L 19.402344 11.199219 C 19.417969 11.113281 19.472656 11.070312 19.558594 11.070312 L 22.761719 11.070312 C 23.769531 11.070312 24.519531 11.34375 24.992188 11.882812 C 25.464844 12.421875 25.613281 13.175781 25.425781 14.125 C 25.351562 14.511719 25.222656 14.871094 25.042969 15.191406 C 24.859375 15.515625 24.621094 15.8125 24.332031 16.078125 C 23.984375 16.402344 23.589844 16.636719 23.164062 16.773438 C 22.746094 16.910156 22.203125 16.980469 21.558594 16.980469 L 20.261719 16.980469 L 19.890625 18.878906 C 19.875 18.964844 19.824219 19.007812 19.738281 19.007812 Z M 18.070312 19.007812 " fill-opacity="1" fill-rule="nonzero"/><path fill="#ffffff" d="M 21.25 12.746094 L 22.132812 12.746094 C 22.835938 12.746094 23.082031 12.898438 23.164062 12.992188 C 23.300781 13.144531 23.328125 13.464844 23.238281 13.917969 C 23.140625 14.429688 22.957031 14.789062 22.691406 14.992188 C 22.417969 15.203125 21.980469 15.308594 21.382812 15.308594 L 20.75 15.308594 Z M 22.761719 10.914062 L 19.558594 10.914062 C 19.382812 10.914062 19.28125 11 19.25 11.167969 L 17.761719 18.789062 C 17.742188 18.886719 17.765625 18.972656 17.828125 19.050781 C 17.890625 19.125 17.972656 19.164062 18.070312 19.164062 L 19.738281 19.164062 C 19.910156 19.164062 20.011719 19.078125 20.046875 18.910156 L 20.390625 17.136719 L 21.558594 17.136719 C 22.222656 17.136719 22.777344 17.066406 23.214844 16.925781 C 23.660156 16.777344 24.074219 16.535156 24.4375 16.191406 C 24.742188 15.917969 24.988281 15.605469 25.179688 15.269531 C 25.367188 14.933594 25.503906 14.558594 25.582031 14.15625 C 25.777344 13.15625 25.617188 12.355469 25.109375 11.777344 C 24.609375 11.207031 23.816406 10.914062 22.761719 10.914062 M 20.367188 15.621094 L 21.382812 15.621094 C 22.054688 15.621094 22.554688 15.496094 22.882812 15.242188 C 23.210938 14.992188 23.433594 14.570312 23.550781 13.980469 C 23.660156 13.414062 23.609375 13.011719 23.398438 12.78125 C 23.1875 12.546875 22.765625 12.429688 22.132812 12.429688 L 20.988281 12.429688 L 20.367188 15.621094 M 22.761719 11.230469 C 23.726562 11.230469 24.429688 11.480469 24.871094 11.984375 C 25.316406 12.488281 25.449219 13.191406 25.273438 14.097656 C 25.199219 14.46875 25.078125 14.808594 24.902344 15.117188 C 24.730469 15.425781 24.503906 15.707031 24.226562 15.964844 C 23.890625 16.273438 23.523438 16.496094 23.117188 16.625 C 22.707031 16.757812 22.191406 16.824219 21.558594 16.824219 L 20.132812 16.824219 L 19.738281 18.851562 L 18.070312 18.851562 L 19.558594 11.230469 L 22.761719 11.230469 " fill-opacity="1" fill-rule="nonzero"/></svg>