<svg xmlns="http://www.w3.org/2000/svg" xmlns:xlink="http://www.w3.org/1999/xlink" width="40" zoomAndPan="magnify" viewBox="0 0 30 30.000001" height="40" preserveAspectRatio="xMidYMid meet" version="1.0"><defs><clipPath id="716d5a9e72"><path d="M 0.484375 2 L 29.515625 2 L 29.515625 27 L 0.484375 27 Z M 0.484375 2 " clip-rule="nonzero"/></clipPath><clipPath id="198da7bef8"><path d="M 0.484375 0.921875 L 29.515625 0.921875 L 29.515625 27.777344 L 0.484375 27.777344 Z M 0.484375 0.921875 " clip-rule="nonzero"/></clipPath></defs><path fill="#00d8ff" d="M 17.59375 14.328125 C 17.59375 14.667969 17.527344 14.992188 17.394531 15.308594 C 17.265625 15.621094 17.078125 15.898438 16.832031 16.136719 C 16.589844 16.378906 16.308594 16.5625 15.992188 16.695312 C 15.675781 16.824219 15.34375 16.890625 15 16.890625 C 14.65625 16.890625 14.324219 16.824219 14.007812 16.695312 C 13.691406 16.5625 13.410156 16.378906 13.167969 16.136719 C 12.925781 15.898438 12.738281 15.621094 12.605469 15.308594 C 12.472656 14.992188 12.40625 14.667969 12.40625 14.328125 C 12.40625 13.988281 12.472656 13.660156 12.605469 13.347656 C 12.738281 13.035156 12.925781 12.757812 13.167969 12.515625 C 13.410156 12.277344 13.691406 12.089844 14.007812 11.960938 C 14.324219 11.832031 14.65625 11.765625 15 11.765625 C 15.34375 11.765625 15.675781 11.832031 15.992188 11.960938 C 16.308594 12.089844 16.589844 12.277344 16.832031 12.515625 C 17.078125 12.757812 17.265625 13.035156 17.394531 13.347656 C 17.527344 13.660156 17.59375 13.988281 17.59375 14.328125 Z M 17.59375 14.328125 " fill-opacity="1" fill-rule="nonzero"/><g clip-path="url(#716d5a9e72)"><path stroke-linecap="butt" transform="matrix(0.0516774, 0, 0, 0.0510522, 1.071538, 2.196072)" fill="none" stroke-linejoin="miter" d="M 269.527035 135.645875 C 336.876927 135.645875 399.464706 145.286741 446.632307 161.50788 C 503.475314 181.095672 538.39748 210.783418 538.39748 237.640116 C 538.39748 265.644537 501.358819 297.168638 440.358411 317.368548 C 394.173469 332.67151 333.475418 340.62905 269.527035 340.62905 C 203.991281 340.62905 141.932627 333.130599 95.21856 317.215519 C 36.183469 297.015609 0.65659 265.108933 0.65659 237.640116 C 0.65659 211.012962 33.991385 181.55476 90.002912 162.043484 C 137.39728 145.516285 201.496841 135.645875 269.527035 135.645875 Z M 269.527035 135.645875 " stroke="#00d8ff" stroke-width="24" stroke-opacity="1" stroke-miterlimit="4"/></g><g clip-path="url(#198da7bef8)"><path stroke-linecap="butt" transform="matrix(0.0516774, 0, 0, 0.0510522, 1.071538, 2.196072)" fill="none" stroke-linejoin="miter" d="M 180.709837 186.910797 C 214.422578 128.606512 254.031269 79.177945 291.674643 46.429606 C 337.028106 6.947964 380.189484 -8.508027 403.395339 4.958579 C 427.659442 18.884275 436.503367 66.782546 423.502041 129.754234 C 413.675458 177.346446 390.242835 233.967405 358.344233 289.364128 C 325.538562 346.138117 288.046366 396.178802 250.932115 428.621082 C 203.991281 469.709535 158.56223 484.553408 134.751662 470.857257 C 111.696985 457.54368 102.853059 413.930238 113.964658 355.625953 C 123.262118 306.350416 146.770329 245.827201 180.709837 186.910797 Z M 180.709837 186.910797 " stroke="#00d8ff" stroke-width="24" stroke-opacity="1" stroke-miterlimit="4"/><path stroke-linecap="butt" transform="matrix(0.0516774, 0, 0, 0.0510522, 1.071538, 2.196072)" fill="none" stroke-linejoin="miter" d="M 180.785426 289.517157 C 147.072686 231.212872 124.093598 172.219954 114.493782 123.250475 C 102.928649 64.257557 111.092272 19.113819 134.373716 5.647212 C 158.56223 -8.354998 204.444816 7.866142 252.519487 50.637921 C 288.877846 82.850656 326.218864 131.43756 358.268644 186.757768 C 391.074315 243.531757 415.716363 300.994379 425.240591 349.351739 C 437.410436 410.563587 427.583853 457.314136 403.848874 471.086801 C 380.794197 484.400378 338.539888 470.321653 293.56437 431.605159 C 255.543051 398.856821 214.876112 348.357046 180.785426 289.440643 Z M 180.785426 289.517157 " stroke="#00d8ff" stroke-width="24" stroke-opacity="1" stroke-miterlimit="4"/></g></svg>