<svg xmlns="http://www.w3.org/2000/svg" xmlns:xlink="http://www.w3.org/1999/xlink" width="40" zoomAndPan="magnify" viewBox="0 0 30 30.000001" height="40" preserveAspectRatio="xMidYMid meet" version="1.0"><defs><clipPath id="a442e47dcc"><path d="M 0.484375 0 L 29.515625 0 L 29.515625 29.03125 L 0.484375 29.03125 Z M 0.484375 0 " clip-rule="nonzero"/></clipPath></defs><g clip-path="url(#a442e47dcc)"><path fill="#000000" d="M 15 29.03125 C 23.015625 29.03125 29.515625 22.53125 29.515625 14.515625 C 29.515625 6.5 23.015625 0 15 0 C 6.984375 0 0.484375 6.5 0.484375 14.515625 C 0.484375 22.53125 6.984375 29.03125 15 29.03125 Z M 13.894531 16.359375 C 13.488281 16.359375 13.15625 16.691406 13.15625 17.097656 L 13.15625 21.519531 C 13.15625 21.929688 13.488281 22.257812 13.894531 22.257812 L 18.316406 22.257812 L 18.316406 20.785156 L 17.582031 20.785156 L 17.582031 17.097656 C 17.582031 16.691406 17.25 16.359375 16.84375 16.359375 Z M 14.632812 17.835938 L 16.105469 17.835938 L 16.105469 20.785156 L 14.632812 20.785156 Z M 7.996094 17.097656 C 7.996094 16.691406 8.324219 16.359375 8.734375 16.359375 L 11.683594 16.359375 L 11.683594 17.835938 L 9.46875 17.835938 L 9.46875 18.570312 L 11.683594 18.570312 C 12.089844 18.570312 12.417969 18.902344 12.417969 19.308594 L 12.417969 21.519531 C 12.417969 21.929688 12.089844 22.257812 11.683594 22.257812 L 8.734375 22.257812 L 8.734375 20.785156 L 10.945312 20.785156 L 10.945312 20.046875 L 8.734375 20.046875 C 8.324219 20.046875 7.996094 19.714844 7.996094 19.308594 Z M 19.054688 21.519531 L 19.054688 16.359375 L 20.53125 16.359375 L 20.53125 20.785156 L 22.003906 20.785156 L 22.003906 22.257812 L 19.792969 22.257812 C 19.386719 22.257812 19.054688 21.929688 19.054688 21.519531 Z M 13.023438 7.144531 C 13.660156 6.90625 14.488281 6.773438 15.367188 6.773438 C 16.25 6.773438 17.078125 6.90625 17.714844 7.144531 C 18.027344 7.261719 18.335938 7.421875 18.574219 7.636719 C 18.816406 7.847656 19.054688 8.179688 19.054688 8.617188 L 19.054688 13.777344 C 19.054688 14.21875 18.816406 14.546875 18.574219 14.761719 C 18.335938 14.972656 18.027344 15.132812 17.714844 15.25 C 17.078125 15.488281 16.25 15.621094 15.367188 15.621094 C 14.488281 15.621094 13.660156 15.488281 13.023438 15.25 C 12.710938 15.132812 12.402344 14.972656 12.160156 14.761719 C 11.921875 14.546875 11.683594 14.21875 11.683594 13.777344 L 11.683594 8.617188 C 11.683594 8.179688 11.921875 7.847656 12.160156 7.636719 C 12.402344 7.421875 12.710938 7.261719 13.023438 7.144531 Z M 13.15625 10.136719 C 13.773438 10.347656 14.550781 10.460938 15.367188 10.460938 C 16.1875 10.460938 16.964844 10.347656 17.582031 10.136719 L 17.582031 11.089844 C 17.515625 11.140625 17.394531 11.214844 17.195312 11.289062 C 16.765625 11.453125 16.117188 11.566406 15.367188 11.566406 C 14.621094 11.566406 13.972656 11.453125 13.542969 11.289062 C 13.34375 11.214844 13.21875 11.140625 13.15625 11.089844 Z M 13.15625 12.71875 C 13.773438 12.925781 14.550781 13.042969 15.367188 13.042969 C 16.1875 13.042969 16.964844 12.925781 17.582031 12.71875 L 17.582031 13.671875 C 17.515625 13.722656 17.394531 13.796875 17.195312 13.871094 C 16.765625 14.03125 16.117188 14.148438 15.367188 14.148438 C 14.621094 14.148438 13.972656 14.03125 13.542969 13.871094 C 13.34375 13.796875 13.21875 13.722656 13.15625 13.671875 Z M 13.117188 13.636719 Z M 13.117188 13.636719 " fill-opacity="1" fill-rule="evenodd"/></g></svg>